E:UsersJOELDownloadsCSI Miami 8x24 HDTV + Xvid + AC3.mkv
   General
      Complete name : E:UsersJOELDownloadsCSI Miami 8x24 HDTV + Xvid + AC3.mkv
      Format : Matroska
      File size : 440 MiB
      Duration : 40mn 54s
      Overall bit rate : 1 505 Kbps
      Encoded date : UTC 2010-05-27 17:52:29
      Writing application : VirtualDubMod 1.5.10.2 (build 2540/release)
      Writing library : libebml-0.7.5 & libmatroska-0.7.7
   Video #1
      ID : 1
      Format : MPEG-4 Visual
      Format profile : AdvancedSimple@L5
      Format settings, BVOP : Yes
      Format settings, QPel : No
      Format settings, GMC : No warppoints
      Format settings, Matrix : Default (H.263)
      Codec ID : XVID
      Codec ID/Hint : XviD
      Duration : 40mn 51s
      Bit rate : 1 027 Kbps
      Width : 624 pixels
      Height : 352 pixels
      Display aspect ratio : 16:9
      Frame rate : 23.976 fps
      Resolution : 24 bits
      Colorimetry : 4:2:0
      Scan type : Progressive
      Bits/(Pixel*Frame) : 0.195
      Stream size : 300 MiB (68%)
      Writing library : XviD 1.2.1 (UTC 2008-12-04)
   Audio #2
      ID : 2
      Format : AC-3
      Format/Info : Audio Coding 3
      Codec ID : A_AC3
      Duration : 40mn 54s
      Bit rate mode : Constant
      Bit rate : 448 Kbps
      Channel(s) : 2 channels
      Channel positions : L R
      Sampling rate : 48.0 KHz
      Stream size : 131 MiB (30%)